<?xml version="1.0" encoding="UTF-8" standalone="no"?>
<!DOCTYPE svg PUBLIC "-//W3C//DTD SVG 1.1//EN"
 "http://www.w3.org/Graphics/SVG/1.1/DTD/svg11.dtd">
<!-- Generated by graphviz version 2.43.0 (0)
 -->
<!-- Title: %3 Pages: 1 -->
<svg width="2703pt" height="332pt"
 viewBox="0.00 0.00 2702.94 332.00" xmlns="http://www.w3.org/2000/svg" xmlns:xlink="http://www.w3.org/1999/xlink">
<g id="graph0" class="graph" transform="scale(1 1) rotate(0) translate(4 328)">
<title>%3</title>
<polygon fill="white" stroke="transparent" points="-4,4 -4,-328 2698.94,-328 2698.94,4 -4,4"/>
<!-- god -->
<g id="node1" class="node">
<title>god</title>
<g id="a_node1"><a xlink:title="ok">
<ellipse fill="none" stroke="black" cx="1140.35" cy="-306" rx="27.9" ry="18"/>
<text text-anchor="middle" x="1140.35" y="-302.3" font-family="Times,serif" font-size="14.00">god</text>
</a>
</g>
</g>
<!-- josephine -->
<g id="node2" class="node">
<title>josephine</title>
<g id="a_node2"><a xlink:title="ok">
<ellipse fill="none" stroke="black" cx="226.35" cy="-234" rx="55.49" ry="18"/>
<text text-anchor="middle" x="226.35" y="-230.3" font-family="Times,serif" font-size="14.00">josephine</text>
</a>
</g>
</g>
<!-- god&#45;&gt;josephine -->
<g id="edge1" class="edge">
<title>god&#45;&gt;josephine</title>
<path fill="none" stroke="black" d="M1115.9,-315C970.55,-315 226.35,-315 226.35,-315 226.35,-315 226.35,-262.38 226.35,-262.38"/>
<polygon fill="black" stroke="black" points="229.85,-262.38 226.35,-252.38 222.85,-262.38 229.85,-262.38"/>
</g>
<!-- francoise -->
<g id="node3" class="node">
<title>francoise</title>
<g id="a_node3"><a xlink:title="ok">
<ellipse fill="none" stroke="black" cx="726.35" cy="-234" rx="53.09" ry="18"/>
<text text-anchor="middle" x="726.35" y="-230.3" font-family="Times,serif" font-size="14.00">francoise</text>
</a>
</g>
</g>
<!-- god&#45;&gt;francoise -->
<g id="edge2" class="edge">
<title>god&#45;&gt;francoise</title>
<path fill="none" stroke="black" d="M1112.22,-306C1019.04,-306 726.35,-306 726.35,-306 726.35,-306 726.35,-262.17 726.35,-262.17"/>
<polygon fill="black" stroke="black" points="729.85,-262.17 726.35,-252.17 722.85,-262.17 729.85,-262.17"/>
</g>
<!-- felix -->
<g id="node4" class="node">
<title>felix</title>
<g id="a_node4"><a xlink:title="ok">
<polygon fill="none" stroke="black" points="1057.35,-252 1003.35,-252 1003.35,-216 1057.35,-216 1057.35,-252"/>
<text text-anchor="middle" x="1030.35" y="-230.3" font-family="Times,serif" font-size="14.00">felix</text>
</a>
</g>
</g>
<!-- god&#45;&gt;felix -->
<g id="edge3" class="edge">
<title>god&#45;&gt;felix</title>
<path fill="none" stroke="black" d="M1115.93,-297C1083.53,-297 1030.35,-297 1030.35,-297 1030.35,-297 1030.35,-262.22 1030.35,-262.22"/>
<polygon fill="black" stroke="black" points="1033.85,-262.22 1030.35,-252.22 1026.85,-262.22 1033.85,-262.22"/>
</g>
<!-- emile -->
<g id="node5" class="node">
<title>emile</title>
<g id="a_node5"><a xlink:title="ok">
<polygon fill="none" stroke="black" points="1279.35,-252 1223.35,-252 1223.35,-216 1279.35,-216 1279.35,-252"/>
<text text-anchor="middle" x="1251.35" y="-230.3" font-family="Times,serif" font-size="14.00">emile</text>
</a>
</g>
</g>
<!-- god&#45;&gt;emile -->
<g id="edge4" class="edge">
<title>god&#45;&gt;emile</title>
<path fill="none" stroke="black" d="M1164.71,-297C1197.38,-297 1251.35,-297 1251.35,-297 1251.35,-297 1251.35,-262.22 1251.35,-262.22"/>
<polygon fill="black" stroke="black" points="1254.85,-262.22 1251.35,-252.22 1247.85,-262.22 1254.85,-262.22"/>
</g>
<!-- raymond -->
<g id="node6" class="node">
<title>raymond</title>
<g id="a_node6"><a xlink:title="ok">
<polygon fill="none" stroke="black" points="1677.35,-252 1597.35,-252 1597.35,-216 1677.35,-216 1677.35,-252"/>
<text text-anchor="middle" x="1637.35" y="-230.3" font-family="Times,serif" font-size="14.00">raymond</text>
</a>
</g>
</g>
<!-- god&#45;&gt;raymond -->
<g id="edge5" class="edge">
<title>god&#45;&gt;raymond</title>
<path fill="none" stroke="black" d="M1168.49,-306C1273.63,-306 1637.35,-306 1637.35,-306 1637.35,-306 1637.35,-262.17 1637.35,-262.17"/>
<polygon fill="black" stroke="black" points="1640.85,-262.17 1637.35,-252.17 1633.85,-262.17 1640.85,-262.17"/>
</g>
<!-- henriette -->
<g id="node7" class="node">
<title>henriette</title>
<g id="a_node7"><a xlink:title="ok">
<ellipse fill="none" stroke="black" cx="2130.35" cy="-234" rx="53.89" ry="18"/>
<text text-anchor="middle" x="2130.35" y="-230.3" font-family="Times,serif" font-size="14.00">henriette</text>
</a>
</g>
</g>
<!-- god&#45;&gt;henriette -->
<g id="edge6" class="edge">
<title>god&#45;&gt;henriette</title>
<path fill="none" stroke="black" d="M1164.82,-315C1317.27,-315 2130.35,-315 2130.35,-315 2130.35,-315 2130.35,-262.38 2130.35,-262.38"/>
<polygon fill="black" stroke="black" points="2133.85,-262.38 2130.35,-252.38 2126.85,-262.38 2133.85,-262.38"/>
</g>
<!-- lucien -->
<g id="node8" class="node">
<title>lucien</title>
<g id="a_node8"><a xlink:title="ok">
<polygon fill="none" stroke="black" points="358.85,-252 299.85,-252 299.85,-216 358.85,-216 358.85,-252"/>
<text text-anchor="middle" x="329.35" y="-230.3" font-family="Times,serif" font-size="14.00">lucien</text>
</a>
</g>
</g>
<!-- josephine&#45;&gt;lucien -->
<g id="edge7" class="edge">
<title>josephine&#45;&gt;lucien</title>
<path fill="none" stroke="black" d="M278.45,-238C285.74,-238 293,-238 299.67,-238"/>
<path fill="none" stroke="transparent" d="M278.45,-240C285.74,-240 293,-240 299.67,-240"/>
<path fill="none" stroke="black" d="M278.45,-242C285.74,-242 293,-242 299.67,-242"/>
</g>
<!-- leo -->
<g id="node9" class="node">
<title>leo</title>
<g id="a_node9"><a xlink:title="ok">
<polygon fill="none" stroke="black" points="851.35,-252 797.35,-252 797.35,-216 851.35,-216 851.35,-252"/>
<text text-anchor="middle" x="824.35" y="-230.3" font-family="Times,serif" font-size="14.00">leo</text>
</a>
</g>
</g>
<!-- francoise&#45;&gt;leo -->
<g id="edge8" class="edge">
<title>francoise&#45;&gt;leo</title>
<path fill="none" stroke="black" d="M779.65,-232C785.75,-232 791.77,-232 797.31,-232"/>
<path fill="none" stroke="transparent" d="M779.65,-234C785.75,-234 791.77,-234 797.31,-234"/>
<path fill="none" stroke="black" d="M779.65,-236C785.75,-236 791.77,-236 797.31,-236"/>
</g>
<!-- isabelle -->
<g id="node10" class="node">
<title>isabelle</title>
<g id="a_node10"><a xlink:title="ok">
<ellipse fill="none" stroke="black" cx="1121.35" cy="-234" rx="46.29" ry="18"/>
<text text-anchor="middle" x="1121.35" y="-230.3" font-family="Times,serif" font-size="14.00">isabelle</text>
</a>
</g>
</g>
<!-- felix&#45;&gt;isabelle -->
<g id="edge9" class="edge">
<title>felix&#45;&gt;isabelle</title>
<path fill="none" stroke="black" d="M1057.65,-232C1063.2,-232 1069.18,-232 1075.18,-232"/>
<path fill="none" stroke="transparent" d="M1057.65,-234C1063.2,-234 1069.18,-234 1075.18,-234"/>
<path fill="none" stroke="black" d="M1057.65,-236C1063.2,-236 1069.18,-236 1075.18,-236"/>
</g>
<!-- solange -->
<g id="node11" class="node">
<title>solange</title>
<g id="a_node11"><a xlink:title="ok">
<ellipse fill="none" stroke="black" cx="1380.35" cy="-234" rx="46.29" ry="18"/>
<text text-anchor="middle" x="1380.35" y="-230.3" font-family="Times,serif" font-size="14.00">solange</text>
</a>
</g>
</g>
<!-- emile&#45;&gt;solange -->
<g id="edge10" class="edge">
<title>emile&#45;&gt;solange</title>
<path fill="none" stroke="black" d="M1279.66,-232C1295.6,-232 1315.91,-232 1334.11,-232"/>
<path fill="none" stroke="transparent" d="M1279.66,-234C1295.6,-234 1315.91,-234 1334.11,-234"/>
<path fill="none" stroke="black" d="M1279.66,-236C1295.6,-236 1315.91,-236 1334.11,-236"/>
</g>
<!-- raymond_spouse -->
<g id="node12" class="node">
<title>raymond_spouse</title>
<g id="a_node12"><a xlink:title="ok">
<ellipse fill="none" stroke="black" cx="1936.35" cy="-234" rx="88.28" ry="18"/>
<text text-anchor="middle" x="1936.35" y="-230.3" font-family="Times,serif" font-size="14.00">raymond_spouse</text>
</a>
</g>
</g>
<!-- raymond&#45;&gt;raymond_spouse -->
<g id="edge11" class="edge">
<title>raymond&#45;&gt;raymond_spouse</title>
<path fill="none" stroke="black" d="M1677.36,-232C1720.72,-232 1791.29,-232 1847.82,-232"/>
<path fill="none" stroke="transparent" d="M1677.36,-234C1720.72,-234 1791.29,-234 1847.82,-234"/>
<path fill="none" stroke="black" d="M1677.36,-236C1720.72,-236 1791.29,-236 1847.82,-236"/>
</g>
<!-- henri -->
<g id="node13" class="node">
<title>henri</title>
<g id="a_node13"><a xlink:title="ok">
<polygon fill="none" stroke="black" points="2289.35,-252 2235.35,-252 2235.35,-216 2289.35,-216 2289.35,-252"/>
<text text-anchor="middle" x="2262.35" y="-230.3" font-family="Times,serif" font-size="14.00">henri</text>
</a>
</g>
</g>
<!-- henriette&#45;&gt;henri -->
<g id="edge12" class="edge">
<title>henriette&#45;&gt;henri</title>
<path fill="none" stroke="black" d="M2184.42,-232C2201.93,-232 2220.61,-232 2235.28,-232"/>
<path fill="none" stroke="transparent" d="M2184.42,-234C2201.93,-234 2220.61,-234 2235.28,-234"/>
<path fill="none" stroke="black" d="M2184.42,-236C2201.93,-236 2220.61,-236 2235.28,-236"/>
</g>
<!-- nicole -->
<g id="node14" class="node">
<title>nicole</title>
<g id="a_node14"><a xlink:title="ok">
<ellipse fill="none" stroke="black" cx="38.35" cy="-162" rx="38.19" ry="18"/>
<text text-anchor="middle" x="38.35" y="-158.3" font-family="Times,serif" font-size="14.00">nicole</text>
</a>
</g>
</g>
<!-- lucien&#45;&gt;nicole -->
<g id="edge13" class="edge">
<title>lucien&#45;&gt;nicole</title>
<path fill="none" stroke="black" d="M329.35,-215.94C329.35,-211.51 329.35,-208 329.35,-208 329.35,-208 38.35,-208 38.35,-208 38.35,-208 38.35,-190.18 38.35,-190.18"/>
<polygon fill="black" stroke="black" points="41.85,-190.18 38.35,-180.18 34.85,-190.18 41.85,-190.18"/>
</g>
<!-- michelle -->
<g id="node15" class="node">
<title>michelle</title>
<g id="a_node15"><a xlink:title="ok">
<ellipse fill="none" stroke="black" cx="222.35" cy="-162" rx="50.09" ry="18"/>
<text text-anchor="middle" x="222.35" y="-158.3" font-family="Times,serif" font-size="14.00">michelle</text>
</a>
</g>
</g>
<!-- lucien&#45;&gt;michelle -->
<g id="edge14" class="edge">
<title>lucien&#45;&gt;michelle</title>
<path fill="none" stroke="black" d="M299.69,-228C292.07,-228 285.97,-228 285.97,-228 285.97,-228 285.97,-168 285.97,-168 285.97,-168 279.58,-168 279.58,-168"/>
<polygon fill="black" stroke="black" points="279.58,-164.5 269.58,-168 279.58,-171.5 279.58,-164.5"/>
</g>
<!-- renee -->
<g id="node16" class="node">
<title>renee</title>
<g id="a_node16"><a xlink:title="ok">
<ellipse fill="none" stroke="black" cx="435.35" cy="-162" rx="37.09" ry="18"/>
<text text-anchor="middle" x="435.35" y="-158.3" font-family="Times,serif" font-size="14.00">renee</text>
</a>
</g>
</g>
<!-- lucien&#45;&gt;renee -->
<g id="edge15" class="edge">
<title>lucien&#45;&gt;renee</title>
<path fill="none" stroke="black" d="M358.87,-234C390.24,-234 435.35,-234 435.35,-234 435.35,-234 435.35,-190.17 435.35,-190.17"/>
<polygon fill="black" stroke="black" points="438.85,-190.17 435.35,-180.17 431.85,-190.17 438.85,-190.17"/>
</g>
<!-- jacqueline_2 -->
<g id="node17" class="node">
<title>jacqueline_2</title>
<g id="a_node17"><a xlink:title="ok">
<ellipse fill="none" stroke="black" cx="640.35" cy="-162" rx="68.49" ry="18"/>
<text text-anchor="middle" x="640.35" y="-158.3" font-family="Times,serif" font-size="14.00">jacqueline_2</text>
</a>
</g>
</g>
<!-- leo&#45;&gt;jacqueline_2 -->
<g id="edge16" class="edge">
<title>leo&#45;&gt;jacqueline_2</title>
<path fill="none" stroke="black" d="M807.01,-215.87C807.01,-205.29 807.01,-194 807.01,-194 807.01,-194 690.82,-194 690.82,-194 690.82,-194 690.82,-184.28 690.82,-184.28"/>
<polygon fill="black" stroke="black" points="694.32,-184.28 690.82,-174.28 687.32,-184.28 694.32,-184.28"/>
</g>
<!-- jean_claude -->
<g id="node18" class="node">
<title>jean_claude</title>
<g id="a_node18"><a xlink:title="ok">
<polygon fill="none" stroke="black" points="826.35,-180 726.35,-180 726.35,-144 826.35,-144 826.35,-180"/>
<text text-anchor="middle" x="776.35" y="-158.3" font-family="Times,serif" font-size="14.00">jean_claude</text>
</a>
</g>
</g>
<!-- leo&#45;&gt;jean_claude -->
<g id="edge17" class="edge">
<title>leo&#45;&gt;jean_claude</title>
<path fill="none" stroke="black" d="M816.68,-215.83C816.68,-215.83 816.68,-190.41 816.68,-190.41"/>
<polygon fill="black" stroke="black" points="820.18,-190.41 816.68,-180.41 813.18,-190.41 820.18,-190.41"/>
</g>
<!-- josy -->
<g id="node19" class="node">
<title>josy</title>
<g id="a_node19"><a xlink:title="ok">
<ellipse fill="none" stroke="black" cx="873.35" cy="-162" rx="29.5" ry="18"/>
<text text-anchor="middle" x="873.35" y="-158.3" font-family="Times,serif" font-size="14.00">josy</text>
</a>
</g>
</g>
<!-- leo&#45;&gt;josy -->
<g id="edge18" class="edge">
<title>leo&#45;&gt;josy</title>
<path fill="none" stroke="black" d="M847.72,-215.83C847.72,-215.83 847.72,-180.96 847.72,-180.96"/>
<polygon fill="black" stroke="black" points="851.22,-180.96 847.72,-170.96 844.22,-180.96 851.22,-180.96"/>
</g>
<!-- jacqueline -->
<g id="node20" class="node">
<title>jacqueline</title>
<g id="a_node20"><a xlink:title="ok">
<ellipse fill="none" stroke="black" cx="978.35" cy="-162" rx="57.69" ry="18"/>
<text text-anchor="middle" x="978.35" y="-158.3" font-family="Times,serif" font-size="14.00">jacqueline</text>
</a>
</g>
</g>
<!-- isabelle&#45;&gt;jacqueline -->
<g id="edge19" class="edge">
<title>isabelle&#45;&gt;jacqueline</title>
<path fill="none" stroke="black" d="M1105.96,-216.77C1105.96,-203.35 1105.96,-187 1105.96,-187 1105.96,-187 1019.77,-187 1019.77,-187 1019.77,-187 1019.77,-184.79 1019.77,-184.79"/>
<polygon fill="black" stroke="black" points="1023.27,-184.79 1019.77,-174.79 1016.27,-184.79 1023.27,-184.79"/>
</g>
<!-- marie_paule -->
<g id="node21" class="node">
<title>marie_paule</title>
<g id="a_node21"><a xlink:title="ok">
<ellipse fill="none" stroke="black" cx="1121.35" cy="-162" rx="67.69" ry="18"/>
<text text-anchor="middle" x="1121.35" y="-158.3" font-family="Times,serif" font-size="14.00">marie_paule</text>
</a>
</g>
</g>
<!-- isabelle&#45;&gt;marie_paule -->
<g id="edge20" class="edge">
<title>isabelle&#45;&gt;marie_paule</title>
<path fill="none" stroke="black" d="M1136.73,-216.94C1136.73,-216.94 1136.73,-189.69 1136.73,-189.69"/>
<polygon fill="black" stroke="black" points="1140.23,-189.69 1136.73,-179.69 1133.23,-189.69 1140.23,-189.69"/>
</g>
<!-- antoine_marie -->
<g id="node22" class="node">
<title>antoine_marie</title>
<g id="a_node22"><a xlink:title="ok">
<polygon fill="none" stroke="black" points="1514.35,-180 1396.35,-180 1396.35,-144 1514.35,-144 1514.35,-180"/>
<text text-anchor="middle" x="1455.35" y="-158.3" font-family="Times,serif" font-size="14.00">antoine_marie</text>
</a>
</g>
</g>
<!-- solange&#45;&gt;antoine_marie -->
<g id="edge21" class="edge">
<title>solange&#45;&gt;antoine_marie</title>
<path fill="none" stroke="black" d="M1411.42,-220.46C1411.42,-220.46 1411.42,-190.1 1411.42,-190.1"/>
<polygon fill="black" stroke="black" points="1414.92,-190.1 1411.42,-180.1 1407.92,-190.1 1414.92,-190.1"/>
</g>
<!-- danielle -->
<g id="node23" class="node">
<title>danielle</title>
<g id="a_node23"><a xlink:title="ok">
<ellipse fill="none" stroke="black" cx="1824.35" cy="-162" rx="47.39" ry="18"/>
<text text-anchor="middle" x="1824.35" y="-158.3" font-family="Times,serif" font-size="14.00">danielle</text>
</a>
</g>
</g>
<!-- raymond_spouse&#45;&gt;danielle -->
<g id="edge22" class="edge">
<title>raymond_spouse&#45;&gt;danielle</title>
<path fill="none" stroke="black" d="M1859.87,-224.88C1859.87,-224.88 1859.87,-184.17 1859.87,-184.17"/>
<polygon fill="black" stroke="black" points="1863.37,-184.17 1859.87,-174.17 1856.37,-184.17 1863.37,-184.17"/>
</g>
<!-- evelyne -->
<g id="node24" class="node">
<title>evelyne</title>
<g id="a_node24"><a xlink:title="ok">
<ellipse fill="none" stroke="black" cx="1936.35" cy="-162" rx="46.29" ry="18"/>
<text text-anchor="middle" x="1936.35" y="-158.3" font-family="Times,serif" font-size="14.00">evelyne</text>
</a>
</g>
</g>
<!-- raymond_spouse&#45;&gt;evelyne -->
<g id="edge23" class="edge">
<title>raymond_spouse&#45;&gt;evelyne</title>
<path fill="none" stroke="black" d="M1936.35,-215.83C1936.35,-215.83 1936.35,-190.41 1936.35,-190.41"/>
<polygon fill="black" stroke="black" points="1939.85,-190.41 1936.35,-180.41 1932.85,-190.41 1939.85,-190.41"/>
</g>
<!-- nathalie_2 -->
<g id="node25" class="node">
<title>nathalie_2</title>
<g id="a_node25"><a xlink:title="ok">
<ellipse fill="none" stroke="black" cx="2059.35" cy="-162" rx="58.49" ry="18"/>
<text text-anchor="middle" x="2059.35" y="-158.3" font-family="Times,serif" font-size="14.00">nathalie_2</text>
</a>
</g>
</g>
<!-- raymond_spouse&#45;&gt;nathalie_2 -->
<g id="edge24" class="edge">
<title>raymond_spouse&#45;&gt;nathalie_2</title>
<path fill="none" stroke="black" d="M2008.81,-223.68C2008.81,-223.68 2008.81,-181.38 2008.81,-181.38"/>
<polygon fill="black" stroke="black" points="2012.31,-181.38 2008.81,-171.38 2005.31,-181.38 2012.31,-181.38"/>
</g>
<!-- johnny -->
<g id="node26" class="node">
<title>johnny</title>
<g id="a_node26"><a xlink:title="ok">
<polygon fill="none" stroke="black" points="2200.85,-180 2135.85,-180 2135.85,-144 2200.85,-144 2200.85,-180"/>
<text text-anchor="middle" x="2168.35" y="-158.3" font-family="Times,serif" font-size="14.00">johnny</text>
</a>
</g>
</g>
<!-- raymond_spouse&#45;&gt;johnny -->
<g id="edge25" class="edge">
<title>raymond_spouse&#45;&gt;johnny</title>
<path fill="none" stroke="black" d="M2016.78,-226.35C2016.78,-216.6 2016.78,-201 2016.78,-201 2016.78,-201 2160.07,-201 2160.07,-201 2160.07,-201 2160.07,-190.13 2160.07,-190.13"/>
<polygon fill="black" stroke="black" points="2163.57,-190.13 2160.07,-180.13 2156.57,-190.13 2163.57,-190.13"/>
</g>
<!-- jean_louis -->
<g id="node27" class="node">
<title>jean_louis</title>
<g id="a_node27"><a xlink:title="ok">
<polygon fill="none" stroke="black" points="2305.85,-180 2218.85,-180 2218.85,-144 2305.85,-144 2305.85,-180"/>
<text text-anchor="middle" x="2262.35" y="-158.3" font-family="Times,serif" font-size="14.00">jean_louis</text>
</a>
</g>
</g>
<!-- henri&#45;&gt;jean_louis -->
<g id="edge26" class="edge">
<title>henri&#45;&gt;jean_louis</title>
<path fill="none" stroke="black" d="M2262.35,-215.83C2262.35,-215.83 2262.35,-190.41 2262.35,-190.41"/>
<polygon fill="black" stroke="black" points="2265.85,-190.41 2262.35,-180.41 2258.85,-190.41 2265.85,-190.41"/>
</g>
<!-- patrick -->
<g id="node28" class="node">
<title>patrick</title>
<g id="a_node28"><a xlink:title="ok">
<polygon fill="none" stroke="black" points="2593.85,-180 2526.85,-180 2526.85,-144 2593.85,-144 2593.85,-180"/>
<text text-anchor="middle" x="2560.35" y="-158.3" font-family="Times,serif" font-size="14.00">patrick</text>
</a>
</g>
</g>
<!-- henri&#45;&gt;patrick -->
<g id="edge27" class="edge">
<title>henri&#45;&gt;patrick</title>
<path fill="none" stroke="black" d="M2289.58,-234C2363.15,-234 2560.35,-234 2560.35,-234 2560.35,-234 2560.35,-190.17 2560.35,-190.17"/>
<polygon fill="black" stroke="black" points="2563.85,-190.17 2560.35,-180.17 2556.85,-190.17 2563.85,-190.17"/>
</g>
<!-- pierre -->
<g id="node29" class="node">
<title>pierre</title>
<g id="a_node29"><a xlink:title="ok">
<polygon fill="none" stroke="black" points="154.35,-180 94.35,-180 94.35,-144 154.35,-144 154.35,-180"/>
<text text-anchor="middle" x="124.35" y="-158.3" font-family="Times,serif" font-size="14.00">pierre</text>
</a>
</g>
</g>
<!-- nicole&#45;&gt;pierre -->
<g id="edge28" class="edge">
<title>nicole&#45;&gt;pierre</title>
<path fill="none" stroke="black" d="M76.82,-160C82.63,-160 88.56,-160 94.16,-160"/>
<path fill="none" stroke="transparent" d="M76.82,-162C82.63,-162 88.56,-162 94.16,-162"/>
<path fill="none" stroke="black" d="M76.82,-164C82.63,-164 88.56,-164 94.16,-164"/>
</g>
<!-- delouvrier -->
<g id="node30" class="node">
<title>delouvrier</title>
<g id="a_node30"><a xlink:title="ok">
<polygon fill="none" stroke="black" points="380.35,-180 290.35,-180 290.35,-144 380.35,-144 380.35,-180"/>
<text text-anchor="middle" x="335.35" y="-158.3" font-family="Times,serif" font-size="14.00">delouvrier</text>
</a>
</g>
</g>
<!-- michelle&#45;&gt;delouvrier -->
<g id="edge29" class="edge">
<title>michelle&#45;&gt;delouvrier</title>
<path fill="none" stroke="black" d="M269.61,-154C276.39,-154 283.34,-154 290.08,-154"/>
<path fill="none" stroke="transparent" d="M269.61,-156C276.39,-156 283.34,-156 290.08,-156"/>
<path fill="none" stroke="black" d="M269.61,-158C276.39,-158 283.34,-158 290.08,-158"/>
</g>
<!-- michel -->
<g id="node31" class="node">
<title>michel</title>
<g id="a_node31"><a xlink:title="ok">
<polygon fill="none" stroke="black" points="554.35,-180 490.35,-180 490.35,-144 554.35,-144 554.35,-180"/>
<text text-anchor="middle" x="522.35" y="-158.3" font-family="Times,serif" font-size="14.00">michel</text>
</a>
</g>
</g>
<!-- renee&#45;&gt;michel -->
<g id="edge30" class="edge">
<title>renee&#45;&gt;michel</title>
<path fill="none" stroke="black" d="M472.49,-160C478.41,-160 484.48,-160 490.26,-160"/>
<path fill="none" stroke="transparent" d="M472.49,-162C478.41,-162 484.48,-162 490.26,-162"/>
<path fill="none" stroke="black" d="M472.49,-164C478.41,-164 484.48,-164 490.26,-164"/>
</g>
<!-- marie_paule_husband -->
<g id="node32" class="node">
<title>marie_paule_husband</title>
<g id="a_node32"><a xlink:title="ok">
<polygon fill="none" stroke="black" points="1377.85,-180 1206.85,-180 1206.85,-144 1377.85,-144 1377.85,-180"/>
<text text-anchor="middle" x="1292.35" y="-158.3" font-family="Times,serif" font-size="14.00">marie_paule_husband</text>
</a>
</g>
</g>
<!-- marie_paule&#45;&gt;marie_paule_husband -->
<g id="edge31" class="edge">
<title>marie_paule&#45;&gt;marie_paule_husband</title>
<path fill="none" stroke="black" d="M1189.42,-160C1195.1,-160 1200.89,-160 1206.68,-160"/>
<path fill="none" stroke="transparent" d="M1189.42,-162C1195.1,-162 1200.89,-162 1206.68,-162"/>
<path fill="none" stroke="black" d="M1189.42,-164C1195.1,-164 1200.89,-164 1206.68,-164"/>
</g>
<!-- antoine_marie_spouse -->
<g id="node33" class="node">
<title>antoine_marie_spouse</title>
<g id="a_node33"><a xlink:title="ok">
<ellipse fill="none" stroke="black" cx="1645.35" cy="-162" rx="113.18" ry="18"/>
<text text-anchor="middle" x="1645.35" y="-158.3" font-family="Times,serif" font-size="14.00">antoine_marie_spouse</text>
</a>
</g>
</g>
<!-- antoine_marie&#45;&gt;antoine_marie_spouse -->
<g id="edge32" class="edge">
<title>antoine_marie&#45;&gt;antoine_marie_spouse</title>
<path fill="none" stroke="black" d="M1514.42,-160C1520.09,-160 1525.95,-160 1531.92,-160"/>
<path fill="none" stroke="transparent" d="M1514.42,-162C1520.09,-162 1525.95,-162 1531.92,-162"/>
<path fill="none" stroke="black" d="M1514.42,-164C1520.09,-164 1525.95,-164 1531.92,-164"/>
</g>
<!-- jean_louis_spouse -->
<g id="node34" class="node">
<title>jean_louis_spouse</title>
<g id="a_node34"><a xlink:title="ok">
<ellipse fill="none" stroke="black" cx="2416.35" cy="-162" rx="92.88" ry="18"/>
<text text-anchor="middle" x="2416.35" y="-158.3" font-family="Times,serif" font-size="14.00">jean_louis_spouse</text>
</a>
</g>
</g>
<!-- jean_louis&#45;&gt;jean_louis_spouse -->
<g id="edge33" class="edge">
<title>jean_louis&#45;&gt;jean_louis_spouse</title>
<path fill="none" stroke="black" d="M2306.06,-160C2311.58,-160 2317.37,-160 2323.3,-160"/>
<path fill="none" stroke="transparent" d="M2306.06,-162C2311.58,-162 2317.37,-162 2323.3,-162"/>
<path fill="none" stroke="black" d="M2306.06,-164C2311.58,-164 2317.37,-164 2323.3,-164"/>
</g>
<!-- helene -->
<g id="node35" class="node">
<title>helene</title>
<g id="a_node35"><a xlink:title="ok">
<ellipse fill="none" stroke="black" cx="2653.35" cy="-162" rx="41.69" ry="18"/>
<text text-anchor="middle" x="2653.35" y="-158.3" font-family="Times,serif" font-size="14.00">helene</text>
</a>
</g>
</g>
<!-- patrick&#45;&gt;helene -->
<g id="edge34" class="edge">
<title>patrick&#45;&gt;helene</title>
<path fill="none" stroke="black" d="M2593.92,-160C2599.64,-160 2605.65,-160 2611.56,-160"/>
<path fill="none" stroke="transparent" d="M2593.92,-162C2599.64,-162 2605.65,-162 2611.56,-162"/>
<path fill="none" stroke="black" d="M2593.92,-164C2599.64,-164 2605.65,-164 2611.56,-164"/>
</g>
<!-- bruno -->
<g id="node36" class="node">
<title>bruno</title>
<g id="a_node36"><a xlink:title="ok">
<polygon fill="none" stroke="black" points="105.85,-108 46.85,-108 46.85,-72 105.85,-72 105.85,-108"/>
<text text-anchor="middle" x="76.35" y="-86.3" font-family="Times,serif" font-size="14.00">bruno</text>
</a>
</g>
</g>
<!-- pierre&#45;&gt;bruno -->
<g id="edge35" class="edge">
<title>pierre&#45;&gt;bruno</title>
<path fill="none" stroke="black" d="M100.1,-143.83C100.1,-143.83 100.1,-118.41 100.1,-118.41"/>
<polygon fill="black" stroke="black" points="103.6,-118.41 100.1,-108.41 96.6,-118.41 103.6,-118.41"/>
</g>
<!-- jean_pierre -->
<g id="node37" class="node">
<title>jean_pierre</title>
<g id="a_node37"><a xlink:title="ok">
<polygon fill="none" stroke="black" points="220.85,-108 123.85,-108 123.85,-72 220.85,-72 220.85,-108"/>
<text text-anchor="middle" x="172.35" y="-86.3" font-family="Times,serif" font-size="14.00">jean_pierre</text>
</a>
</g>
</g>
<!-- pierre&#45;&gt;jean_pierre -->
<g id="edge36" class="edge">
<title>pierre&#45;&gt;jean_pierre</title>
<path fill="none" stroke="black" d="M139.1,-143.83C139.1,-143.83 139.1,-118.41 139.1,-118.41"/>
<polygon fill="black" stroke="black" points="142.6,-118.41 139.1,-108.41 135.6,-118.41 142.6,-118.41"/>
</g>
<!-- julie -->
<g id="node38" class="node">
<title>julie</title>
<g id="a_node38"><a xlink:title="ok">
<ellipse fill="none" stroke="black" cx="326.35" cy="-90" rx="30.59" ry="18"/>
<text text-anchor="middle" x="326.35" y="-86.3" font-family="Times,serif" font-size="14.00">julie</text>
</a>
</g>
</g>
<!-- delouvrier&#45;&gt;julie -->
<g id="edge37" class="edge">
<title>delouvrier&#45;&gt;julie</title>
<path fill="none" stroke="black" d="M326.35,-143.83C326.35,-143.83 326.35,-118.41 326.35,-118.41"/>
<polygon fill="black" stroke="black" points="329.85,-118.41 326.35,-108.41 322.85,-118.41 329.85,-118.41"/>
</g>
<!-- claire -->
<g id="node39" class="node">
<title>claire</title>
<g id="a_node39"><a xlink:title="ok">
<ellipse fill="none" stroke="black" cx="411.35" cy="-90" rx="36.29" ry="18"/>
<text text-anchor="middle" x="411.35" y="-86.3" font-family="Times,serif" font-size="14.00">claire</text>
</a>
</g>
</g>
<!-- delouvrier&#45;&gt;claire -->
<g id="edge38" class="edge">
<title>delouvrier&#45;&gt;claire</title>
<path fill="none" stroke="black" d="M380.41,-162C385.74,-162 389.32,-162 389.32,-162 389.32,-162 389.32,-114.57 389.32,-114.57"/>
<polygon fill="black" stroke="black" points="392.82,-114.57 389.32,-104.57 385.82,-114.57 392.82,-114.57"/>
</g>
<!-- olivier -->
<g id="node40" class="node">
<title>olivier</title>
<g id="a_node40"><a xlink:title="ok">
<polygon fill="none" stroke="black" points="540.35,-108 478.35,-108 478.35,-72 540.35,-72 540.35,-108"/>
<text text-anchor="middle" x="509.35" y="-86.3" font-family="Times,serif" font-size="14.00">olivier</text>
</a>
</g>
</g>
<!-- michel&#45;&gt;olivier -->
<g id="edge39" class="edge">
<title>michel&#45;&gt;olivier</title>
<path fill="none" stroke="black" d="M515.35,-143.83C515.35,-143.83 515.35,-118.41 515.35,-118.41"/>
<polygon fill="black" stroke="black" points="518.85,-118.41 515.35,-108.41 511.85,-118.41 518.85,-118.41"/>
</g>
<!-- nathalie -->
<g id="node41" class="node">
<title>nathalie</title>
<g id="a_node41"><a xlink:title="ok">
<ellipse fill="none" stroke="black" cx="606.35" cy="-90" rx="48.19" ry="18"/>
<text text-anchor="middle" x="606.35" y="-86.3" font-family="Times,serif" font-size="14.00">nathalie</text>
</a>
</g>
</g>
<!-- michel&#45;&gt;nathalie -->
<g id="edge40" class="edge">
<title>michel&#45;&gt;nathalie</title>
<path fill="none" stroke="black" d="M554.37,-162C560.57,-162 565.18,-162 565.18,-162 565.18,-162 565.18,-109.41 565.18,-109.41"/>
<polygon fill="black" stroke="black" points="568.68,-109.41 565.18,-99.41 561.68,-109.41 568.68,-109.41"/>
</g>
<!-- alice -->
<g id="node42" class="node">
<title>alice</title>
<g id="a_node42"><a xlink:title="ok">
<ellipse fill="none" stroke="black" cx="1292.35" cy="-90" rx="32.49" ry="18"/>
<text text-anchor="middle" x="1292.35" y="-86.3" font-family="Times,serif" font-size="14.00">alice</text>
</a>
</g>
</g>
<!-- marie_paule_husband&#45;&gt;alice -->
<g id="edge41" class="edge">
<title>marie_paule_husband&#45;&gt;alice</title>
<path fill="none" stroke="black" d="M1292.35,-143.83C1292.35,-143.83 1292.35,-118.41 1292.35,-118.41"/>
<polygon fill="black" stroke="black" points="1295.85,-118.41 1292.35,-108.41 1288.85,-118.41 1295.85,-118.41"/>
</g>
<!-- chara -->
<g id="node43" class="node">
<title>chara</title>
<g id="a_node43"><a xlink:title="ok">
<ellipse fill="none" stroke="black" cx="1525.35" cy="-90" rx="36.29" ry="18"/>
<text text-anchor="middle" x="1525.35" y="-86.3" font-family="Times,serif" font-size="14.00">chara</text>
</a>
</g>
</g>
<!-- antoine_marie_spouse&#45;&gt;chara -->
<g id="edge42" class="edge">
<title>antoine_marie_spouse&#45;&gt;chara</title>
<path fill="none" stroke="black" d="M1547,-152.88C1547,-152.88 1547,-114.52 1547,-114.52"/>
<polygon fill="black" stroke="black" points="1550.5,-114.52 1547,-104.52 1543.5,-114.52 1550.5,-114.52"/>
</g>
<!-- laura_maria -->
<g id="node44" class="node">
<title>laura_maria</title>
<g id="a_node44"><a xlink:title="ok">
<ellipse fill="none" stroke="black" cx="1645.35" cy="-90" rx="65.79" ry="18"/>
<text text-anchor="middle" x="1645.35" y="-86.3" font-family="Times,serif" font-size="14.00">laura_maria</text>
</a>
</g>
</g>
<!-- antoine_marie_spouse&#45;&gt;laura_maria -->
<g id="edge43" class="edge">
<title>antoine_marie_spouse&#45;&gt;laura_maria</title>
<path fill="none" stroke="black" d="M1645.35,-143.83C1645.35,-143.83 1645.35,-118.41 1645.35,-118.41"/>
<polygon fill="black" stroke="black" points="1648.85,-118.41 1645.35,-108.41 1641.85,-118.41 1648.85,-118.41"/>
</g>
<!-- anto_maria -->
<g id="node45" class="node">
<title>anto_maria</title>
<g id="a_node45"><a xlink:title="ok">
<polygon fill="none" stroke="black" points="1825.35,-108 1729.35,-108 1729.35,-72 1825.35,-72 1825.35,-108"/>
<text text-anchor="middle" x="1777.35" y="-86.3" font-family="Times,serif" font-size="14.00">anto_maria</text>
</a>
</g>
</g>
<!-- antoine_marie_spouse&#45;&gt;anto_maria -->
<g id="edge44" class="edge">
<title>antoine_marie_spouse&#45;&gt;anto_maria</title>
<path fill="none" stroke="black" d="M1743.89,-152.88C1743.89,-152.88 1743.89,-118.15 1743.89,-118.15"/>
<polygon fill="black" stroke="black" points="1747.39,-118.15 1743.89,-108.15 1740.39,-118.15 1747.39,-118.15"/>
</g>
<!-- jean_marie -->
<g id="node46" class="node">
<title>jean_marie</title>
<g id="a_node46"><a xlink:title="ok">
<polygon fill="none" stroke="black" points="2463.85,-108 2368.85,-108 2368.85,-72 2463.85,-72 2463.85,-108"/>
<text text-anchor="middle" x="2416.35" y="-86.3" font-family="Times,serif" font-size="14.00">jean_marie</text>
</a>
</g>
</g>
<!-- jean_louis_spouse&#45;&gt;jean_marie -->
<g id="edge45" class="edge">
<title>jean_louis_spouse&#45;&gt;jean_marie</title>
<path fill="none" stroke="black" d="M2416.35,-143.83C2416.35,-143.83 2416.35,-118.41 2416.35,-118.41"/>
<polygon fill="black" stroke="black" points="2419.85,-118.41 2416.35,-108.41 2412.85,-118.41 2419.85,-118.41"/>
</g>
<!-- thomas -->
<g id="node47" class="node">
<title>thomas</title>
<g id="a_node47"><a xlink:title="ok">
<polygon fill="none" stroke="black" points="2687.85,-108 2618.85,-108 2618.85,-72 2687.85,-72 2687.85,-108"/>
<text text-anchor="middle" x="2653.35" y="-86.3" font-family="Times,serif" font-size="14.00">thomas</text>
</a>
</g>
</g>
<!-- helene&#45;&gt;thomas -->
<g id="edge46" class="edge">
<title>helene&#45;&gt;thomas</title>
<path fill="none" stroke="black" d="M2653.35,-143.83C2653.35,-143.83 2653.35,-118.41 2653.35,-118.41"/>
<polygon fill="black" stroke="black" points="2656.85,-118.41 2653.35,-108.41 2649.85,-118.41 2656.85,-118.41"/>
</g>
<!-- enzo -->
<g id="node49" class="node">
<title>enzo</title>
<g id="a_node49"><a xlink:title="ok">
<polygon fill="none" stroke="black" points="353.35,-36 299.35,-36 299.35,0 353.35,0 353.35,-36"/>
<text text-anchor="middle" x="326.35" y="-14.3" font-family="Times,serif" font-size="14.00">enzo</text>
</a>
</g>
</g>
<!-- julie&#45;&gt;enzo -->
<g id="edge48" class="edge">
<title>julie&#45;&gt;enzo</title>
<path fill="none" stroke="black" d="M326.35,-71.83C326.35,-71.83 326.35,-46.41 326.35,-46.41"/>
<polygon fill="black" stroke="black" points="329.85,-46.41 326.35,-36.41 322.85,-46.41 329.85,-46.41"/>
</g>
<!-- nathalie_husban -->
<g id="node48" class="node">
<title>nathalie_husban</title>
<g id="a_node48"><a xlink:title="ok">
<polygon fill="none" stroke="black" points="805.85,-108 672.85,-108 672.85,-72 805.85,-72 805.85,-108"/>
<text text-anchor="middle" x="739.35" y="-86.3" font-family="Times,serif" font-size="14.00">nathalie_husban</text>
</a>
</g>
</g>
<!-- nathalie&#45;&gt;nathalie_husban -->
<g id="edge47" class="edge">
<title>nathalie&#45;&gt;nathalie_husban</title>
<path fill="none" stroke="black" d="M651.75,-94C658.52,-94 665.62,-94 672.72,-94"/>
<path fill="none" stroke="transparent" d="M651.75,-96C658.52,-96 665.62,-96 672.72,-96"/>
<path fill="none" stroke="black" d="M651.75,-98C658.52,-98 665.62,-98 672.72,-98"/>
</g>
<!-- ambroise -->
<g id="node50" class="node">
<title>ambroise</title>
<g id="a_node50"><a xlink:title="ok">
<ellipse fill="none" stroke="black" cx="1292.35" cy="-18" rx="53.89" ry="18"/>
<text text-anchor="middle" x="1292.35" y="-14.3" font-family="Times,serif" font-size="14.00">ambroise</text>
</a>
</g>
</g>
<!-- alice&#45;&gt;ambroise -->
<g id="edge49" class="edge">
<title>alice&#45;&gt;ambroise</title>
<path fill="none" stroke="black" d="M1292.35,-71.83C1292.35,-71.83 1292.35,-46.41 1292.35,-46.41"/>
<polygon fill="black" stroke="black" points="1295.85,-46.41 1292.35,-36.41 1288.85,-46.41 1295.85,-46.41"/>
</g>
<!-- louis -->
<g id="node51" class="node">
<title>louis</title>
<g id="a_node51"><a xlink:title="ok">
<polygon fill="none" stroke="black" points="652.35,-36 598.35,-36 598.35,0 652.35,0 652.35,-36"/>
<text text-anchor="middle" x="625.35" y="-14.3" font-family="Times,serif" font-size="14.00">louis</text>
</a>
</g>
</g>
<!-- nathalie_husban&#45;&gt;louis -->
<g id="edge50" class="edge">
<title>nathalie_husban&#45;&gt;louis</title>
<path fill="none" stroke="black" d="M672.77,-84C666.48,-84 662.39,-84 662.39,-84 662.39,-84 662.39,-18 662.39,-18 662.39,-18 661.42,-18 661.42,-18"/>
<polygon fill="black" stroke="black" points="662.66,-14.5 652.66,-18 662.66,-21.5 662.66,-14.5"/>
</g>
<!-- jean -->
<g id="node52" class="node">
<title>jean</title>
<g id="a_node52"><a xlink:title="ok">
<polygon fill="none" stroke="black" points="724.35,-36 670.35,-36 670.35,0 724.35,0 724.35,-36"/>
<text text-anchor="middle" x="697.35" y="-14.3" font-family="Times,serif" font-size="14.00">jean</text>
</a>
</g>
</g>
<!-- nathalie_husban&#45;&gt;jean -->
<g id="edge51" class="edge">
<title>nathalie_husban&#45;&gt;jean</title>
<path fill="none" stroke="black" d="M698.6,-71.83C698.6,-71.83 698.6,-46.41 698.6,-46.41"/>
<polygon fill="black" stroke="black" points="702.1,-46.41 698.6,-36.41 695.1,-46.41 702.1,-46.41"/>
</g>
<!-- gregoire -->
<g id="node53" class="node">
<title>gregoire</title>
<g id="a_node53"><a xlink:title="ok">
<polygon fill="none" stroke="black" points="819.85,-36 742.85,-36 742.85,0 819.85,0 819.85,-36"/>
<text text-anchor="middle" x="781.35" y="-14.3" font-family="Times,serif" font-size="14.00">gregoire</text>
</a>
</g>
</g>
<!-- nathalie_husban&#45;&gt;gregoire -->
<g id="edge52" class="edge">
<title>nathalie_husban&#45;&gt;gregoire</title>
<path fill="none" stroke="black" d="M774.35,-71.83C774.35,-71.83 774.35,-46.41 774.35,-46.41"/>
<polygon fill="black" stroke="black" points="777.85,-46.41 774.35,-36.41 770.85,-46.41 777.85,-46.41"/>
</g>
<!-- charlotte -->
<g id="node54" class="node">
<title>charlotte</title>
<g id="a_node54"><a xlink:title="ok">
<ellipse fill="none" stroke="black" cx="890.35" cy="-18" rx="52.79" ry="18"/>
<text text-anchor="middle" x="890.35" y="-14.3" font-family="Times,serif" font-size="14.00">charlotte</text>
</a>
</g>
</g>
<!-- nathalie_husban&#45;&gt;charlotte -->
<g id="edge53" class="edge">
<title>nathalie_husban&#45;&gt;charlotte</title>
<path fill="none" stroke="black" d="M805.95,-90C839.58,-90 873.35,-90 873.35,-90 873.35,-90 873.35,-45.06 873.35,-45.06"/>
<polygon fill="black" stroke="black" points="876.85,-45.06 873.35,-35.06 869.85,-45.06 876.85,-45.06"/>
</g>
</g>
</svg>
